<mxfile host="65bd71144e">
    <diagram id="Y7FQM-CszRI8n27SibvU" name="Page-1">
        <mxGraphModel dx="273" dy="235" grid="1" gridSize="10" guides="1" tooltips="1" connect="1" arrows="1" fold="1" page="1" pageScale="1" pageWidth="827" pageHeight="1169" math="0" shadow="0">
            <root>
                <mxCell id="0"/>
                <mxCell id="1" parent="0"/>
                <mxCell id="2" value="Enum" style="swimlane;" vertex="1" parent="1">
                    <mxGeometry x="200" y="110" width="200" height="80" as="geometry"/>
                </mxCell>
                <mxCell id="12" style="edgeStyle=none;html=1;endArrow=block;endFill=0;" edge="1" parent="1" source="3">
                    <mxGeometry relative="1" as="geometry">
                        <mxPoint x="320" y="190" as="targetPoint"/>
                    </mxGeometry>
                </mxCell>
                <mxCell id="3" value="FileCategory" style="swimlane;fontStyle=0;childLayout=stackLayout;horizontal=1;startSize=26;fillColor=none;horizontalStack=0;resizeParent=1;resizeParentMax=0;resizeLast=0;collapsible=1;marginBottom=0;" vertex="1" parent="1">
                    <mxGeometry x="350" y="280" width="140" height="210" as="geometry"/>
                </mxCell>
                <mxCell id="4" value="+ DOCUMENTS&#10;+ IMAGES&#10;+ AUDIO&#10;+ VIDEO&#10;+ ARCHIVES&#10;+ UNKNOWNS&#10;&#10;- missing()&#10;+ folder_name()&#10;+ is_unknowns()&#10;+ reserved_folders()" style="text;strokeColor=none;fillColor=none;align=left;verticalAlign=top;spacingLeft=4;spacingRight=4;overflow=hidden;rotatable=0;points=[[0,0.5],[1,0.5]];portConstraint=eastwest;" vertex="1" parent="3">
                    <mxGeometry y="26" width="140" height="184" as="geometry"/>
                </mxCell>
                <mxCell id="13" style="edgeStyle=none;html=1;endArrow=block;endFill=0;exitX=0.5;exitY=0;exitDx=0;exitDy=0;" edge="1" parent="1" source="7">
                    <mxGeometry relative="1" as="geometry">
                        <mxPoint x="270" y="190" as="targetPoint"/>
                    </mxGeometry>
                </mxCell>
                <mxCell id="7" value="FileExtension" style="swimlane;fontStyle=0;childLayout=stackLayout;horizontal=1;startSize=26;fillColor=none;horizontalStack=0;resizeParent=1;resizeParentMax=0;resizeLast=0;collapsible=1;marginBottom=0;" vertex="1" parent="1">
                    <mxGeometry x="110" y="280" width="140" height="400" as="geometry"/>
                </mxCell>
                <mxCell id="8" value="+ TXT&#10;+ DOC&#10;+ DOCX&#10;+ PDF&#10;+ XLSX&#10;+ PPTX&#10;+ JPEG&#10;+ JPG&#10;+ PNG&#10;+ SVG&#10;+ AVI&#10;+ MP4&#10;+ MOV&#10;+ MKV&#10;+ MP3&#10;+ OGG&#10;+ WAV&#10;+ AMR&#10;+ ZIP&#10;+ GZ&#10;+ TAR&#10;+UNKNOWN&#10;&#10;+ is_unknown()&#10;+ missing()&#10;" style="text;strokeColor=none;fillColor=none;align=left;verticalAlign=top;spacingLeft=4;spacingRight=4;overflow=hidden;rotatable=0;points=[[0,0.5],[1,0.5]];portConstraint=eastwest;" vertex="1" parent="7">
                    <mxGeometry y="26" width="140" height="374" as="geometry"/>
                </mxCell>
                <mxCell id="14" value="file_types" style="swimlane;" vertex="1" parent="1">
                    <mxGeometry x="50" y="40" width="720" height="780" as="geometry"/>
                </mxCell>
            </root>
        </mxGraphModel>
    </diagram>
</mxfile>